<?xml version="1.0" encoding="UTF-8" standalone="no"?>
<svg
   xmlns:dc="http://purl.org/dc/elements/1.1/"
   xmlns:cc="http://creativecommons.org/ns#"
   xmlns:rdf="http://www.w3.org/1999/02/22-rdf-syntax-ns#"
   xmlns:svg="http://www.w3.org/2000/svg"
   xmlns="http://www.w3.org/2000/svg"
   xmlns:sodipodi="http://sodipodi.sourceforge.net/DTD/sodipodi-0.dtd"
   xmlns:inkscape="http://www.inkscape.org/namespaces/inkscape"
   width="43.448853mm"
   height="43.492012mm"
   viewBox="0 0 43.448853 43.492012"
   version="1.1"
   id="svg8"
   inkscape:version="1.0.1 (3bc2e813f5, 2020-09-07)"
   sodipodi:docname="pdf.svg">
  <title
     id="title2682">PDF file icon</title>
  <defs
     id="defs2">
    <clipPath
       clipPathUnits="userSpaceOnUse"
       id="clipPath839">
      <rect
         style="opacity:1;fill:#000000;fill-opacity:1;fill-rule:nonzero;stroke:none;stroke-width:1;stroke-linecap:butt;stroke-linejoin:round;stroke-miterlimit:4;stroke-dasharray:none;stroke-dashoffset:0;stroke-opacity:1;paint-order:fill markers stroke"
         id="rect841"
         width="68.688263"
         height="67.886459"
         x="-74.033661"
         y="141.44913" />
    </clipPath>
  </defs>
  <sodipodi:namedview
     id="base"
     pagecolor="#ffffff"
     bordercolor="#666666"
     borderopacity="1.0"
     inkscape:pageopacity="0.0"
     inkscape:pageshadow="2"
     inkscape:zoom="0.98994949"
     inkscape:cx="96.890648"
     inkscape:cy="139.57735"
     inkscape:document-units="mm"
     inkscape:current-layer="g899"
     showgrid="false"
     inkscape:object-nodes="false"
     inkscape:window-width="2048"
     inkscape:window-height="1088"
     inkscape:window-x="0"
     inkscape:window-y="27"
     inkscape:window-maximized="1"
     inkscape:snap-page="false"
     inkscape:snap-others="false"
     fit-margin-top="0"
     fit-margin-left="0"
     fit-margin-right="0"
     fit-margin-bottom="0"
     inkscape:document-rotation="0" />
  <metadata
     id="metadata5">
    <rdf:RDF>
      <cc:Work
         rdf:about="">
        <dc:format>image/svg+xml</dc:format>
        <dc:type
           rdf:resource="http://purl.org/dc/dcmitype/StillImage" />
        <dc:title>PDF file icon</dc:title>
        <dc:date>08/10/2018</dc:date>
        <dc:creator>
          <cc:Agent>
            <dc:title>Adobe Systems</dc:title>
          </cc:Agent>
        </dc:creator>
        <dc:publisher>
          <cc:Agent>
            <dc:title>CMetalCore</dc:title>
          </cc:Agent>
        </dc:publisher>
        <dc:description>Fuente del texto &quot;PDF&quot;:
Franklin Gothic Medium Cond</dc:description>
        <cc:license
           rdf:resource="http://creativecommons.org/licenses/by-sa/4.0/" />
      </cc:Work>
      <cc:License
         rdf:about="http://creativecommons.org/licenses/by-sa/4.0/">
        <cc:permits
           rdf:resource="http://creativecommons.org/ns#Reproduction" />
        <cc:permits
           rdf:resource="http://creativecommons.org/ns#Distribution" />
        <cc:requires
           rdf:resource="http://creativecommons.org/ns#Notice" />
        <cc:requires
           rdf:resource="http://creativecommons.org/ns#Attribution" />
        <cc:permits
           rdf:resource="http://creativecommons.org/ns#DerivativeWorks" />
        <cc:requires
           rdf:resource="http://creativecommons.org/ns#ShareAlike" />
      </cc:License>
    </rdf:RDF>
  </metadata>
  <g
     inkscape:label="Capa 1"
     inkscape:groupmode="layer"
     id="layer1"
     transform="translate(29.398982,-100.99482)">
    <g
       id="g899"
       transform="matrix(1.4843054,0,0,1.4843054,17.471885,-90.243502)">
      <g
         id="g876">
        <path
           sodipodi:nodetypes="scccscccscccccssscacccsccccccccccccccccccccaccccccccc"
           inkscape:connector-curvature="0"
           d="m -29.64141,155.79582 c -1.45669,-1.45669 0.11934,-3.45839 4.39648,-5.58397 l 2.69124,-1.33743 1.04845,-2.29399 c 0.57665,-1.26169 1.43729,-3.32036 1.91254,-4.5748 l 0.8641,-2.28082 -0.59546,-1.68793 c -0.73217,-2.07547 -0.99326,-5.19438 -0.52872,-6.31588 0.62923,-1.51909 2.69029,-1.36323 3.50626,0.26515 0.63727,1.27176 0.57212,3.57488 -0.18329,6.47946 l -0.6193,2.38125 0.5455,0.92604 c 0.30003,0.50932 1.1764,1.71867 1.9475,2.68743 l 1.44924,1.80272 1.803372,-0.23533 c 5.7290039,-0.74758 7.6912472,0.523 7.6912472,2.34476 0,2.29921 -4.4984914,2.48899 -8.2760862,-0.16423 -0.849967,-0.59698 -1.43366,-1.19001 -1.43366,-1.19001 0,0 -2.366533,0.48178 -3.531704,0.79583 -1.202707,0.32417 -1.80274,0.52719 -3.564509,1.12186 0,0 -0.61814,0.89767 -1.02094,1.55026 -1.49858,2.4279 -3.24833,4.43998 -4.49793,5.1723 -1.3991,0.81993 -2.86584,0.87582 -3.60433,0.13733 z m 2.28605,-0.81668 c 0.81883,-0.50607 2.47616,-2.46625 3.62341,-4.28553 l 0.46449,-0.73658 -2.11497,1.06339 c -3.26655,1.64239 -4.76093,3.19033 -3.98386,4.12664 0.43653,0.52598 0.95874,0.48237 2.01093,-0.16792 z m 21.2180892,-5.95578 c 0.80089,-0.56097 0.68463,-1.69142 -0.22082,-2.1472 -0.70466,-0.35471 -1.2726074,-0.42759 -3.1031571,-0.40057 -1.1249001,0.0767 -2.9337651,0.3034 -3.2403351,0.37237 0,0 0.993716,0.68678 1.434896,0.93922 0.58731,0.33544 2.014516,0.95811 3.0565162,1.27706 1.02785,0.31461 1.6224,0.28144 2.0729,-0.0409 z m -8.5315192,-3.54594 c -0.4847,-0.50952 -1.30889,-1.57296 -1.83152,-2.3632 -0.68353,-0.89643 -1.02629,-1.52887 -1.02629,-1.52887 0,0 -0.4996,1.60694 -0.90948,2.57394 l -1.27876,3.16076 -0.37075,0.71695 c 0,0 1.971043,-0.64627 2.97389,-0.90822 1.062166,-0.27744 3.21787,-0.70134 3.21787,-0.70134 z m -2.74938,-11.02573 c 0.12363,-1.0375 0.1761,-2.07346 -0.15724,-2.59587 -0.9246,-1.01077 -2.04057,-0.16787 -1.85154,2.23517 0.0636,0.8084 0.26443,2.19033 0.53292,3.04209 l 0.48817,1.54863 0.34358,-1.16638 c 0.18897,-0.64151 0.47882,-2.02015 0.64411,-3.06364 z"
           style="fill:#ff2116;fill-opacity:1;stroke-width:3.16175;stroke-miterlimit:4;stroke-dasharray:none"
           id="path2697" />
        <path
           id="rect836"
           style="fill:none;stroke:#d50303;stroke-width:0.808459;stroke-miterlimit:4;stroke-dasharray:none;stroke-dashoffset:0;stroke-opacity:1"
           d="m -31.173414,129.24451 h 20.509646 l 8.1905707,11.27437 -0.2364985,17.21842 H -31.173414 Z"
           sodipodi:nodetypes="cccccc" />
      </g>
    </g>
  </g>
</svg>
